# xmcd
#
# Track frame offsets:
#	150
#	22700
#	43930
#	65282
#	82893
#	98109
#	119198
#	136564
#	151381
#	175544
#	190715
#	205428
#
# Disc length: 3114 seconds
#
# Revision: 2
# Processed by: cddbd v1.5.1PL0 Copyright (c) Steve Scherf et al.
# Submitted via: audiograbber 1.83.01
#
DISCID=930c280c
DTITLE=Reverend Rusty and The Case - Preacher Man
DYEAR=2002
DGENRE=Blues
TTITLE0=Never Win
TTITLE1=The Mechanic
TTITLE2=I Don't Care
TTITLE3=True Love
TTITLE4=Me And The Devil
TTITLE5=Preacher Man
TTITLE6=Enjoy Your Life
TTITLE7=Happy To Be Alone
TTITLE8=One And Only
TTITLE9=Handmade Music
TTITLE10=Brand New Cadillac
TTITLE11=Cruel World
EXTD=RevStoneMusic 2002
EXTT0=
EXTT1=
EXTT2=
EXTT3=
EXTT4=
EXTT5=
EXTT6=
EXTT7=
EXTT8=
EXTT9=
EXTT10=
EXTT11=
PLAYORDER=
